PathFileType	4	(X/Y/Z)	output.trc
DataRate	CameraRate	NumFrames	NumMarkers	Units	OrigDataRate	OrigDataStartFrame	OrigNumFrames
100	100	12	23	m	100	3546	5673
Frame#	Time	C7			T8			EL			EM			US			RS			AA			Fore_Clus_1			Fore_Clus_2			Fore_Clus_3			Fore_Clus_4			Hum_Clus_1			Hum_Clus_2			Hum_Clus_3			Hum_Clus_4			Thor_Clus_1			Thor_Clus_2			Thor_Clus_3			Thor_Clus_4			IJ			PX			GH			Thor_Clus_5		
		X1	Y1	Z1	X2	Y2	Z2	X3	Y3	Z3	X4	Y4	Z4	X5	Y5	Z5	X6	Y6	Z6	X7	Y7	Z7	X8	Y8	Z8	X9	Y9	Z9	X10	Y10	Z10	X11	Y11	Z11	X12	Y12	Z12	X13	Y13	Z13	X14	Y14	Z14	X15	Y15	Z15	X16	Y16	Z16	X17	Y17	Z17	X18	Y18	Z18	X19	Y19	Z19	X20	Y20	Z20	X21	Y21	Z21	X22	Y22	Z22	X23	Y23	Z23
3545	35.450000	-0.094723	1.521468	-0.128880	-0.108674	1.294910	-0.209657	-0.307254	1.132674	0.031192	-0.272459	1.110329	-0.034229	-0.156653	1.088798	0.232964	-0.148796	1.144078	0.226012	-0.250155	1.440432	-0.006789	-0.211085	1.099250	0.213870	-0.177287	1.101921	0.256743	-0.175332	1.129628	0.253210	-0.207992	1.143801	0.208073	-0.308028	1.236874	0.063948	-0.335007	1.248692	0.011374	-0.333534	1.312287	0.012656	-0.299405	1.310501	0.060611	0.030159	1.412561	0.007735	-0.011721	1.353527	0.052821	-0.011156	1.404436	0.025509	0.045619	1.363446	0.024925	-0.026481	1.431288	-0.032479	0.005834	1.218228	0.018072	-0.226015	1.408083	-0.014003	-0.019355	1.374752	0.044461
3546	35.460000	-0.094536	1.521686	-0.128834	-0.108514	1.295213	-0.209843	-0.307233	1.132673	0.031245	-0.272460	1.110312	-0.034183	-0.156599	1.088851	0.233004	-0.148750	1.144132	0.226047	-0.250071	1.440582	-0.006918	-0.211030	1.099291	0.213895	-0.177245	1.101973	0.256775	-0.175286	1.129674	0.253247	-0.207959	1.143843	0.208100	-0.308000	1.236885	0.063971	-0.334991	1.248690	0.011401	-0.333509	1.312287	0.012682	-0.299367	1.310497	0.060630	0.030194	1.412579	0.007706	-0.011693	1.353547	0.052790	-0.011127	1.404454	0.025464	0.045642	1.363447	0.024861	-0.026383	1.431387	-0.032480	0.005828	1.218266	0.017880	-0.225994	1.408069	-0.014033	-0.019324	1.374764	0.044430
3547	35.470000	-0.094371	1.521886	-0.128792	-0.108363	1.295491	-0.210018	-0.307209	1.132674	0.031303	-0.272460	1.110296	-0.034131	-0.156538	1.088906	0.233048	-0.148696	1.144187	0.226083	-0.249995	1.440710	-0.007038	-0.210987	1.099325	0.213938	-0.177194	1.102005	0.256811	-0.175242	1.129725	0.253279	-0.207922	1.143870	0.208149	-0.307956	1.236892	0.064002	-0.334961	1.248683	0.011441	-0.333490	1.312289	0.012712	-0.299327	1.310504	0.060641	0.030269	1.412648	0.007706	-0.011670	1.353568	0.052750	-0.011111	1.404484	0.025420	0.045666	1.363482	0.024811	-0.026296	1.431480	-0.032484	0.005832	1.218304	0.017697	-0.225972	1.408055	-0.014064	-0.019309	1.374793	0.044403
3548	35.480000	-0.094224	1.522072	-0.128752	-0.108220	1.295751	-0.210184	-0.307184	1.132676	0.031367	-0.272459	1.110281	-0.034074	-0.156472	1.088964	0.233093	-0.148636	1.144245	0.226121	-0.249926	1.440820	-0.007148	-0.210917	1.099362	0.213980	-0.177135	1.102050	0.256848	-0.175180	1.129775	0.253321	-0.207861	1.143918	0.208194	-0.307912	1.236891	0.064034	-0.334928	1.248676	0.011487	-0.333461	1.312283	0.012747	-0.299279	1.310512	0.060656	0.030266	1.412659	0.007667	-0.011635	1.353590	0.052715	-0.011095	1.404506	0.025370	0.045692	1.363505	0.024758	-0.026216	1.431568	-0.032489	0.005844	1.218342	0.017521	-0.225948	1.408042	-0.014097	-0.019272	1.374794	0.044345
3549	35.490000	-0.094098	1.522244	-0.128714	-0.108088	1.295993	-0.210340	-0.307154	1.132679	0.031435	-0.272454	1.110265	-0.034013	-0.156399	1.089025	0.233139	-0.148571	1.144306	0.226160	-0.249864	1.440912	-0.007248	-0.210863	1.099400	0.214039	-0.177073	1.102100	0.256901	-0.175135	1.129824	0.253361	-0.207804	1.143962	0.208230	-0.307868	1.236893	0.064065	-0.334899	1.248667	0.011546	-0.333434	1.312270	0.012775	-0.299238	1.310517	0.060674	0.030268	1.412666	0.007603	-0.011622	1.353607	0.052681	-0.011089	1.404516	0.025322	0.045725	1.363527	0.024706	-0.026144	1.431651	-0.032496	0.005864	1.218379	0.017351	-0.225923	1.408029	-0.014130	-0.019237	1.374813	0.044269
3550	35.500000	-0.093996	1.522397	-0.128681	-0.107968	1.296209	-0.210485	-0.307120	1.132682	0.031504	-0.272443	1.110250	-0.033950	-0.156324	1.089087	0.233189	-0.148501	1.144367	0.226201	-0.249813	1.440982	-0.007335	-0.210770	1.099467	0.214088	-0.177001	1.102164	0.256954	-0.175049	1.129919	0.253407	-0.207731	1.144011	0.208268	-0.307827	1.236898	0.064096	-0.334843	1.248660	0.011579	-0.333390	1.312268	0.012792	-0.299180	1.310526	0.060690	0.030287	1.412694	0.007571	-0.011589	1.353636	0.052623	-0.011059	1.404542	0.025267	0.045741	1.363556	0.024639	-0.026084	1.431726	-0.032506	0.005893	1.218415	0.017190	-0.225898	1.408018	-0.014162	-0.019205	1.374833	0.044223
3551	35.510000	-0.093908	1.522540	-0.128648	-0.107859	1.296413	-0.210622	-0.307081	1.132684	0.031574	-0.272425	1.110234	-0.033884	-0.156244	1.089150	0.233239	-0.148428	1.144431	0.226242	-0.249766	1.441040	-0.007412	-0.210699	1.099522	0.214142	-0.176929	1.102225	0.257010	-0.174976	1.129978	0.253470	-0.207666	1.144067	0.208300	-0.307776	1.236915	0.064125	-0.334807	1.248649	0.011626	-0.333369	1.312251	0.012823	-0.299132	1.310531	0.060705	0.030248	1.412717	0.007517	-0.011573	1.353640	0.052587	-0.011041	1.404549	0.025208	0.045768	1.363572	0.024577	-0.026029	1.431798	-0.032518	0.005927	1.218450	0.017033	-0.225874	1.408008	-0.014194	-0.019173	1.374859	0.044153
3552	35.520000	-0.093844	1.522666	-0.128620	-0.107764	1.296592	-0.210747	-0.307036	1.132684	0.031642	-0.272398	1.110217	-0.033820	-0.156162	1.089213	0.233291	-0.148353	1.144493	0.226283	-0.249728	1.441078	-0.007477	-0.210602	1.099571	0.214190	-0.176838	1.102276	0.257062	-0.174893	1.130044	0.253510	-0.207575	1.144116	0.208358	-0.307728	1.236912	0.064150	-0.334767	1.248639	0.011659	-0.333331	1.312247	0.012839	-0.299092	1.310539	0.060720	0.030693	1.412635	0.007318	-0.011540	1.353660	0.052541	-0.011023	1.404573	0.025164	0.045797	1.363595	0.024508	-0.025985	1.431863	-0.032533	0.005970	1.218483	0.016885	-0.225851	1.407998	-0.014223	-0.019138	1.374868	0.044107
3553	35.530000	-0.093793	1.522779	-0.128594	-0.107681	1.296755	-0.210863	-0.306986	1.132682	0.031707	-0.272362	1.110200	-0.033758	-0.156080	1.089275	0.233343	-0.148277	1.144555	0.226323	-0.249695	1.441105	-0.007531	-0.210532	1.099605	0.214235	-0.176743	1.102324	0.257112	-0.174820	1.130088	0.253552	-0.207488	1.144145	0.208392	-0.307680	1.236918	0.064184	-0.334727	1.248624	0.011699	-0.333301	1.312234	0.012860	-0.299050	1.310542	0.060723	0.027721	1.413370	0.008437	-0.011512	1.353658	0.052490	-0.011001	1.404571	0.025110	0.045837	1.363602	0.024442	-0.025946	1.431923	-0.032550	0.006015	1.218515	0.016742	-0.225828	1.407988	-0.014248	-0.019111	1.374885	0.044046
3554	35.540000	-0.093757	1.522880	-0.128571	-0.107611	1.296900	-0.210969	-0.306931	1.132676	0.031766	-0.272318	1.110182	-0.033701	-0.155996	1.089335	0.233394	-0.148202	1.144614	0.226360	-0.249666	1.441122	-0.007574	-0.210452	1.099652	0.214269	-0.176658	1.102375	0.257163	-0.174727	1.130152	0.253591	-0.207412	1.144191	0.208437	-0.307612	1.236925	0.064216	-0.334682	1.248613	0.011735	-0.333268	1.312221	0.012887	-0.298993	1.310536	0.060734	0.024830	1.414044	0.009496	-0.011459	1.353665	0.052439	-0.010979	1.404579	0.025055	0.045866	1.363590	0.024378	-0.025912	1.431976	-0.032570	0.006064	1.218543	0.016607	-0.225806	1.407979	-0.014270	-0.019078	1.374896	0.043990
3555	35.550000	-0.093738	1.522960	-0.128557	-0.107557	1.297017	-0.211062	-0.306871	1.132666	0.031818	-0.272265	1.110163	-0.033649	-0.155915	1.089391	0.233444	-0.148127	1.144669	0.226395	-0.249642	1.441124	-0.007607	-0.210378	1.099681	0.214316	-0.176577	1.102419	0.257197	-0.174648	1.130193	0.253634	-0.207371	1.144236	0.208454	-0.307581	1.236916	0.064264	-0.334640	1.248589	0.011771	-0.333228	1.312197	0.012915	-0.298943	1.310537	0.060752	0.030108	1.413126	0.007655	-0.011419	1.353668	0.052381	-0.010959	1.404574	0.025013	0.045887	1.363597	0.024325	-0.025886	1.432020	-0.032594	0.006116	1.218569	0.016483	-0.225786	1.407969	-0.014288	-0.019034	1.374905	0.043928
3556	35.560000	-0.093726	1.523027	-0.128548	-0.107517	1.297115	-0.211143	-0.306808	1.132653	0.031864	-0.272206	1.110142	-0.033603	-0.155832	1.089444	0.233490	-0.148053	1.144721	0.226425	-0.249619	1.441123	-0.007629	-0.210305	1.099715	0.214336	-0.176498	1.102486	0.257252	-0.174557	1.130258	0.253665	-0.207292	1.144272	0.208486	-0.307522	1.236917	0.064302	-0.334596	1.248574	0.011807	-0.333196	1.312181	0.012941	-0.298889	1.310522	0.060767	0.030150	1.413147	0.007614	-0.011391	1.353657	0.052331	-0.010923	1.404569	0.024940	0.045894	1.363580	0.024234	-0.025862	1.432057	-0.032622	0.006167	1.218590	0.016370	-0.225765	1.407958	-0.014301	-0.019006	1.374906	0.043888
